<?xml version="1.0" encoding="UTF-8"?><svg id="Layer_1" xmlns="http://www.w3.org/2000/svg" viewBox="0 0 623.62 623.62"><defs><style>.cls-1,.cls-2{stroke:#fff;stroke-miterlimit:10;}.cls-3{fill:#fff;}.cls-2{fill:none;}</style></defs><rect class="cls-3" x="0" y="0" width="623.62" height="623.62"/><rect class="cls-1" x="133.74" y="128.58" width="374.17" height="28.35"/><rect class="cls-1" x="133.74" y="160.01" width="374.17" height="28.35"/><rect class="cls-1" x="133.74" y="191.45" width="374.17" height="28.35"/><rect class="cls-1" x="133.74" y="222.89" width="374.17" height="28.35"/><rect class="cls-1" x="133.74" y="254.33" width="374.17" height="28.35"/><rect class="cls-1" x="133.74" y="317.21" width="374.17" height="28.35"/><rect class="cls-1" x="133.74" y="348.65" width="374.17" height="28.35"/><rect class="cls-1" x="133.74" y="285.77" width="374.17" height="28.35"/><rect class="cls-1" x="133.74" y="442.96" width="374.17" height="28.35"/><rect class="cls-1" x="133.74" y="474.4" width="374.17" height="28.35"/><rect class="cls-1" x="133.74" y="411.52" width="374.17" height="28.35"/><rect class="cls-1" x="133.74" y="380.09" width="374.17" height="28.35"/><path class="cls-3" d="m258.46,276.23c.28-.72.72-1.83,1.3-3.16,1.74-3.95,4.28-9.58,9.31-14.87.8-.85,2.02-2.04,3.63-3.36h10.99c-6.07,3.9-15.56,11.35-21.68,23.85-1.59,3.25-2.73,6.39-3.55,9.28,0-3.92,0-7.83,0-11.75Z"/><path class="cls-3" d="m258.46,301.14c3.55-10.27,11.04-26.56,27.04-39.29,3.53-2.81,7.06-5.11,10.44-7.01h76.63c1.85,1.36,4.07,3.26,6.27,5.82,1.92,2.24,3.33,4.41,4.35,6.25v47.2c-.79,1.15-17.02,23.95-42.29,21.75-12.1-1.05-20.6-7.35-24.31-10.51,22.66,11.24,45.73.24,49.94-13.96,3.88-13.1-10.55-28.66-20.2-35.48-16.35-11.56-34.33-9.44-37.95-8.93-22.38,3.13-41.48,21.04-49.91,45.57v-11.4Z"/><path class="cls-3" d="m383.18,337.31c-3.18.28-21.55,2.17-33.26,17.89-6.31,8.47-7.91,17.23-8.39,21.79h20.97c-.79-1.38-5.46-9.89-2.1-19.44,3.18-9.03,12.25-15.33,22.78-15.65v-4.6Z"/><path class="cls-3" d="m258.46,344.14c18.04-15.29,42.78-16.22,58.45-3.89,16.25,12.79,15.69,34.3,15.59,36.75-3-.09-6.01-.17-9.01-.26-.03-1.41-.76-21.48-16.75-31.18-14.46-8.77-35.19-5.29-48.28,9.65v-11.07Z"/><path class="cls-3" d="m258.46,365.74c11.18-14.66,29.53-18.47,41.3-11.24,10.92,6.71,12.35,20.58,12.52,22.49-2.28-.07-4.56-.14-6.83-.2-.33-3.06-1.7-11.96-8.52-16.69-9.5-6.59-26.74-3.17-38.47,11.47v-5.83Z"/><path d="m134.28,319.51c.07-3.9.14-7.81.21-11.71,94.42.9,175.48,2.3,175.5,4.58,0,.52-4.27,1.46-4.25,3.22,0,.78.85,1.84,4.49,3.09-58.65.27-117.3.55-175.94.82Z"/><path d="m507.36,155.92c-.02,2.04-.03,4.08-.05,6.12-92.3,1.26-176.79,1.92-176.84.05-.01-.47,5.2-1.29,5.41-3.54.08-.83-.51-2.05-3.47-3.71,58.32.36,116.64.72,174.96,1.08Z"/><path d="m507.18,343.07c.04,2.61.08,5.22.11,7.84-155.67.2-264.11-.12-264.13-1.42,0-.25,4.93-.7,5.06-2.2.06-.71-.94-1.67-4.54-3,87.83-.4,175.66-.81,263.49-1.21Z"/><path d="m134.24,185.94l-.02,6.27c11.57.3,23.15.6,34.72.91-1.69-.32-2.94-1.67-3.09-3.26-.12-1.28.52-2.56,1.62-3.32-11.08-.2-22.16-.39-33.24-.59Z"/><path d="m134.25,373.07l-.02,9.39c11.5-.03,22.99-.06,34.49-.1-.87-.71-1.4-2.03-1.37-3.43.04-1.86,1.06-2.89,1.17-3-11.42-.95-22.85-1.91-34.27-2.86Z"/><path d="m134.27,436.34c-.02,2.8-.03,5.6-.05,8.4,29.15-.03,58.3-.06,87.45-.09-2.21-.64-3.56-1.82-3.48-3.07.11-1.66,2.68-2.59,2.96-2.68-28.96-.85-57.92-1.71-86.88-2.56Z"/><path d="m507.43,224.44c-.02-2.09-.05-4.18-.07-6.27-19.32.06-38.64.12-57.96.19,1.44.33,2.49,1.59,2.54,3.06.06,1.49-.92,2.84-2.36,3.26,19.28-.08,38.56-.16,57.84-.24Z"/><path d="m507.23,476.24c-.02-2.91-.04-5.83-.06-8.74-48.91.82-97.81,1.63-146.72,2.45,3.72.6,6,1.8,5.89,3.1-.15,1.73-4.46,2.76-4.93,2.87,48.61.11,97.21.22,145.82.32Z"/><path d="m416.05,287.45c-.02-1.92-.04-3.84-.05-5.75-26.04-.13-52.08-.26-78.11-.39,1.73.35,2.93,1.62,2.97,2.83.04,1.56-1.85,3.37-4.38,3l79.58.31Z"/><path d="m194.63,249.75c-.02.64,5.45,1.69,5.38,3.45-.03.69-.91,1.68-5.38,2.76,47.42-.39,94.84-.78,142.25-1.17-3.47-.63-5.6-1.89-5.5-3.27.13-1.83,4.14-2.92,4.57-3.04-67.38-.75-141.26-1.09-141.32,1.26Z"/><path d="m249.52,406.14c3.31.74,5.56,2.38,5.51,3.62-.06,1.75-5.33,2.29-5.33,2.7.02,1.34,56.33,1.6,143.54,1.2-2.71.37-4.93-1.39-5.17-3.17-.26-1.98,1.84-4.5,4.95-4.38-47.83.01-95.67.02-143.5.03Z"/><rect class="cls-2" x="133.74" y="128.58" width="374.17" height="374.17"/></svg>