<?xml version="1.0" encoding="UTF-8"?><svg id="Layer_1" xmlns="http://www.w3.org/2000/svg" viewBox="0 0 623.62 623.62"><defs><style>.cls-1{stroke:#fff;stroke-miterlimit:10;}.cls-2{fill:#fff;}</style></defs><rect class="cls-1" x="129.98" y="122.79" width="374.17" height="28.35"/><rect class="cls-1" x="129.98" y="154.22" width="374.17" height="28.35"/><rect class="cls-1" x="129.98" y="185.66" width="374.17" height="28.35"/><rect class="cls-1" x="129.98" y="217.1" width="374.17" height="28.35"/><rect class="cls-1" x="129.98" y="248.54" width="374.17" height="28.35"/><rect class="cls-1" x="129.98" y="311.42" width="374.17" height="28.35"/><rect class="cls-1" x="129.98" y="342.86" width="374.17" height="28.35"/><rect class="cls-1" x="129.98" y="279.98" width="374.17" height="28.35"/><rect class="cls-1" x="129.98" y="437.17" width="374.17" height="28.35"/><rect class="cls-1" x="129.98" y="468.61" width="374.17" height="28.35"/><rect class="cls-1" x="129.98" y="405.74" width="374.17" height="28.35"/><rect class="cls-1" x="129.98" y="374.3" width="374.17" height="28.35"/><path class="cls-2" d="m254.7,270.44c.28-.72.72-1.83,1.3-3.16,1.74-3.95,4.28-9.58,9.31-14.87.8-.85,2.02-2.04,3.63-3.36h10.99c-6.07,3.9-15.56,11.35-21.68,23.85-1.59,3.25-2.73,6.39-3.55,9.28,0-3.92,0-7.83,0-11.75Z"/><path class="cls-2" d="m254.7,295.35c3.55-10.27,11.04-26.56,27.04-39.29,3.53-2.81,7.06-5.11,10.44-7.01h76.63c1.85,1.36,4.07,3.26,6.27,5.82,1.92,2.24,3.33,4.41,4.35,6.25v47.2c-.79,1.15-17.02,23.95-42.29,21.75-12.1-1.05-20.6-7.35-24.31-10.51,22.66,11.24,45.73.24,49.94-13.96,3.88-13.1-10.55-28.66-20.2-35.48-16.35-11.56-34.33-9.44-37.95-8.93-22.38,3.13-41.48,21.04-49.91,45.57v-11.4Z"/><path class="cls-2" d="m379.43,331.52c-3.18.28-21.55,2.17-33.26,17.89-6.31,8.47-7.91,17.23-8.39,21.79h20.97c-.79-1.38-5.46-9.89-2.1-19.44,3.18-9.03,12.25-15.33,22.78-15.65v-4.6Z"/><path class="cls-2" d="m254.7,338.35c18.04-15.29,42.78-16.22,58.45-3.89,16.25,12.79,15.69,34.3,15.59,36.75-3-.09-6.01-.17-9.01-.26-.03-1.41-.76-21.48-16.75-31.18-14.46-8.77-35.19-5.29-48.28,9.65v-11.07Z"/><path class="cls-2" d="m254.7,359.95c11.18-14.66,29.53-18.47,41.3-11.24,10.92,6.71,12.35,20.58,12.52,22.49-2.28-.07-4.56-.14-6.83-.2-.33-3.06-1.7-11.96-8.52-16.69-9.5-6.59-26.74-3.17-38.47,11.47v-5.83Z"/></svg>